<?xml version="1.0" encoding="utf-8"?>
<!-- Generator: Adobe Illustrator 28.0.0, SVG Export Plug-In . SVG Version: 6.00 Build 0)  -->
<svg version="1.1" id="Layer_1" xmlns="http://www.w3.org/2000/svg" xmlns:xlink="http://www.w3.org/1999/xlink" x="0px" y="0px"
	 viewBox="0 0 400 400" style="enable-background:new 0 0 400 400;" xml:space="preserve">
<style type="text/css">
	.st0{fill:#FF4711;}
	.st1{fill:none;stroke:#FF4711;stroke-width:8;stroke-linecap:round;stroke-linejoin:round;stroke-miterlimit:10;}
	.st2{fill:#FFFF00;}
	.st3{fill:none;stroke:#000000;stroke-width:8;stroke-linecap:round;stroke-linejoin:round;stroke-miterlimit:10;}
</style>
<g>
	<g>
		<path class="st0" d="M384.9,319.83L326.82,86.68c-0.37-1.49-1.7-2.53-3.24-2.53h-55.61c-1.44,0-2.71,0.92-3.17,2.29l-55.9,168.69
			c-1.01,3.05-5.32,3.05-6.33,0l-55.9-168.69c-0.45-1.36-1.73-2.29-3.17-2.29H88.79c-1.52,0-2.86,1.03-3.23,2.51L56.95,199.02
			c-0.54,2.11,1.06,4.16,3.23,4.16h48.63c1.45,0,2.74,0.94,3.18,2.33l4.63,14.57c0.68,2.15-0.92,4.34-3.18,4.34H53.07
			c-1.52,0-2.86,1.03-3.23,2.51l-3.25,12.78c-0.54,2.11,1.06,4.16,3.23,4.16h72.51c1.44,0,2.72,0.93,3.17,2.3l4.76,14.57
			c0.71,2.16-0.9,4.37-3.17,4.37H42.71c-1.52,0-2.86,1.03-3.23,2.51l-3.08,12.09c-0.54,2.11,1.06,4.16,3.23,4.16h95.65
			c1.44,0,2.72,0.92,3.17,2.29l4.81,14.57c0.71,2.16-0.89,4.38-3.17,4.38H32.53c-1.52,0-2.86,1.03-3.23,2.51l-3.11,12.2
			c-0.54,2.11,1.06,4.16,3.23,4.16h233.75c1.44,0,2.71-0.92,3.16-2.28l26.57-79.82c1.02-3.05,5.34-3.04,6.34,0.02l25.88,79.78
			c0.45,1.37,1.73,2.31,3.17,2.31h53.37C383.83,323.97,385.42,321.94,384.9,319.83z"/>
		<path class="st1" d="M384.9,319.83L326.82,86.68c-0.37-1.49-1.7-2.53-3.24-2.53h-55.61c-1.44,0-2.71,0.92-3.17,2.29l-55.9,168.69
			c-1.01,3.05-5.32,3.05-6.33,0l-55.9-168.69c-0.45-1.36-1.73-2.29-3.17-2.29H88.79c-1.52,0-2.86,1.03-3.23,2.51L56.95,199.02
			c-0.54,2.11,1.06,4.16,3.23,4.16h48.63c1.45,0,2.74,0.94,3.18,2.33l4.63,14.57c0.68,2.15-0.92,4.34-3.18,4.34H53.07
			c-1.52,0-2.86,1.03-3.23,2.51l-3.25,12.78c-0.54,2.11,1.06,4.16,3.23,4.16h72.51c1.44,0,2.72,0.93,3.17,2.3l4.76,14.57
			c0.71,2.16-0.9,4.37-3.17,4.37H42.71c-1.52,0-2.86,1.03-3.23,2.51l-3.08,12.09c-0.54,2.11,1.06,4.16,3.23,4.16h95.65
			c1.44,0,2.72,0.92,3.17,2.29l4.81,14.57c0.71,2.16-0.89,4.38-3.17,4.38H32.53c-1.52,0-2.86,1.03-3.23,2.51l-3.11,12.2
			c-0.54,2.11,1.06,4.16,3.23,4.16h233.75c1.44,0,2.71-0.92,3.16-2.28l26.57-79.82c1.02-3.05,5.34-3.04,6.34,0.02l25.88,79.78
			c0.45,1.37,1.73,2.31,3.17,2.31h53.37C383.83,323.97,385.42,321.94,384.9,319.83z"/>
	</g>
	<g>
		<path class="st2" d="M378.9,315.83L320.82,82.68c-0.37-1.49-1.7-2.53-3.24-2.53h-55.61c-1.44,0-2.71,0.92-3.17,2.29l-55.9,168.69
			c-1.01,3.05-5.32,3.05-6.33,0l-55.9-168.69c-0.45-1.36-1.73-2.29-3.17-2.29H82.79c-1.52,0-2.86,1.03-3.23,2.51L50.95,195.02
			c-0.54,2.11,1.06,4.16,3.23,4.16h48.63c1.45,0,2.74,0.94,3.18,2.33l4.63,14.57c0.68,2.15-0.92,4.34-3.18,4.34H47.07
			c-1.52,0-2.86,1.03-3.23,2.51l-3.25,12.78c-0.54,2.11,1.06,4.16,3.23,4.16h72.51c1.44,0,2.72,0.93,3.17,2.3l4.76,14.57
			c0.71,2.16-0.9,4.37-3.17,4.37H36.71c-1.52,0-2.86,1.03-3.23,2.51l-3.08,12.09c-0.54,2.11,1.06,4.16,3.23,4.16h95.65
			c1.44,0,2.72,0.92,3.17,2.29l4.81,14.57c0.71,2.16-0.89,4.38-3.17,4.38H26.53c-1.52,0-2.86,1.03-3.23,2.51l-3.11,12.2
			c-0.54,2.11,1.06,4.16,3.23,4.16h233.75c1.44,0,2.71-0.92,3.16-2.28l26.57-79.82c1.02-3.05,5.34-3.04,6.34,0.02l25.88,79.78
			c0.45,1.37,1.73,2.31,3.17,2.31h53.37C377.83,319.97,379.42,317.94,378.9,315.83z"/>
		<path class="st3" d="M378.9,315.83L320.82,82.68c-0.37-1.49-1.7-2.53-3.24-2.53h-55.61c-1.44,0-2.71,0.92-3.17,2.29l-55.9,168.69
			c-1.01,3.05-5.32,3.05-6.33,0l-55.9-168.69c-0.45-1.36-1.73-2.29-3.17-2.29H82.79c-1.52,0-2.86,1.03-3.23,2.51L50.95,195.02
			c-0.54,2.11,1.06,4.16,3.23,4.16h48.63c1.45,0,2.74,0.94,3.18,2.33l4.63,14.57c0.68,2.15-0.92,4.34-3.18,4.34H47.07
			c-1.52,0-2.86,1.03-3.23,2.51l-3.25,12.78c-0.54,2.11,1.06,4.16,3.23,4.16h72.51c1.44,0,2.72,0.93,3.17,2.3l4.76,14.57
			c0.71,2.16-0.9,4.37-3.17,4.37H36.71c-1.52,0-2.86,1.03-3.23,2.51l-3.08,12.09c-0.54,2.11,1.06,4.16,3.23,4.16h95.65
			c1.44,0,2.72,0.92,3.17,2.29l4.81,14.57c0.71,2.16-0.89,4.38-3.17,4.38H26.53c-1.52,0-2.86,1.03-3.23,2.51l-3.11,12.2
			c-0.54,2.11,1.06,4.16,3.23,4.16h233.75c1.44,0,2.71-0.92,3.16-2.28l26.57-79.82c1.02-3.05,5.34-3.04,6.34,0.02l25.88,79.78
			c0.45,1.37,1.73,2.31,3.17,2.31h53.37C377.83,319.97,379.42,317.94,378.9,315.83z"/>
	</g>
</g>
<path class="st2" d="M378.9,315.83L320.82,82.68c-0.37-1.49-1.7-2.53-3.24-2.53h-55.61c-1.44,0-2.71,0.92-3.17,2.29l-55.9,168.69
	c-1.01,3.05-5.32,3.05-6.33,0l-55.9-168.69c-0.45-1.36-1.73-2.29-3.17-2.29H82.79c-1.52,0-2.86,1.03-3.23,2.51L50.95,195.02
	c-0.54,2.11,1.06,4.16,3.23,4.16h48.63c1.45,0,2.74,0.94,3.18,2.33l4.63,14.57c0.68,2.15-0.92,4.34-3.18,4.34H47.07
	c-1.52,0-2.86,1.03-3.23,2.51l-3.25,12.78c-0.54,2.11,1.06,4.16,3.23,4.16h72.51c1.44,0,2.72,0.93,3.17,2.3l4.76,14.57
	c0.71,2.16-0.9,4.37-3.17,4.37H36.71c-1.52,0-2.86,1.03-3.23,2.51l-3.08,12.09c-0.54,2.11,1.06,4.16,3.23,4.16h95.65
	c1.44,0,2.72,0.92,3.17,2.29l4.81,14.57c0.71,2.16-0.89,4.38-3.17,4.38H26.53c-1.52,0-2.86,1.03-3.23,2.51l-3.11,12.2
	c-0.54,2.11,1.06,4.16,3.23,4.16h233.75c1.44,0,2.71-0.92,3.16-2.28l26.57-79.82c1.02-3.05,5.34-3.04,6.34,0.02l25.88,79.78
	c0.45,1.37,1.73,2.31,3.17,2.31h53.37C377.83,319.97,379.42,317.94,378.9,315.83z"/>
</svg>
